<svg xmlns="http://www.w3.org/2000/svg" viewBox="0 0 1600 1000" role="img" aria-label="Abstract athlete in motion">
  <defs>
    <linearGradient id="bg" x1="0" x2="1"><stop stop-color="#0b0b0b"/><stop offset="1" stop-color="#30302d"/></linearGradient>
    <radialGradient id="glow"><stop stop-color="#dcff00" stop-opacity=".55"/><stop offset="1" stop-color="#dcff00" stop-opacity="0"/></radialGradient>
    <filter id="noise"><feTurbulence baseFrequency=".8" numOctaves="3" seed="8" type="fractalNoise"/><feColorMatrix values="1 0 0 0 0 0 1 0 0 0 0 0 1 0 0 0 0 0 .13 0"/></filter>
  </defs>
  <rect width="1600" height="1000" fill="url(#bg)"/>
  <ellipse cx="1130" cy="420" rx="420" ry="390" fill="url(#glow)"/>
  <g fill="#d4d4cf" opacity=".72" transform="translate(880 105) rotate(-8)">
    <circle cx="245" cy="110" r="73"/>
    <path d="M169 195c40-62 135-66 174-4l80 240-117 45-44-119-41 213-134-18 54-259z"/>
    <path d="M159 215 28 425l79 45 145-178zM327 206l182 154-53 69-190-121z"/>
    <path d="m116 525-41 344 112 7 83-312zM241 535l123 328 108-37-84-345z"/>
  </g>
  <rect width="1600" height="1000" filter="url(#noise)" opacity=".8"/>
  <path d="M650 80h640M540 920h850" stroke="#fff" stroke-opacity=".12" stroke-width="2"/>
</svg>
